<?xml version="1.0" encoding="UTF-8"?>
<!DOCTYPE svg PUBLIC "-//W3C//DTD SVG 1.1//EN" "http://www.w3.org/Graphics/SVG/1.1/DTD/svg11.dtd">
<!-- Creator: CorelDRAW 2021 (64-Bit) -->
<svg xmlns="http://www.w3.org/2000/svg" xml:space="preserve" width="210mm" height="297mm" version="1.1" style="shape-rendering:geometricPrecision; text-rendering:geometricPrecision; image-rendering:optimizeQuality; fill-rule:evenodd; clip-rule:evenodd"
viewBox="0 0 21000 29700"
 xmlns:xlink="http://www.w3.org/1999/xlink"
 xmlns:xodm="http://www.corel.com/coreldraw/odm/2003">
 <defs>
  <style type="text/css">
   <![CDATA[
    .fil0 {fill:black}
   ]]>
  </style>
 </defs>
 <g id="Layer_x0020_1">
  <metadata id="CorelCorpID_0Corel-Layer"/>
  <g id="_2664780913968">
   <path class="fil0" d="M10314.88 14622.99c549.07,-186.14 825.56,497.74 403.3,760.86 -188.8,117.66 -440.43,68.06 -577.83,-124.04 -137.95,-192.86 -45.24,-512.89 -78.09,-757.83l-79.42 0.71c-10.31,139.38 -1.07,312.05 -1.36,454.02 -0.3,151.08 22.14,255.57 95.47,358.3 119.11,166.86 370.34,291.17 647.52,159.6 329.63,-156.47 400.5,-646.35 57.81,-881.92 -111.75,-76.82 -229.04,-102.26 -385.29,-80.55l0.52 -338.4 -79.97 -2.4 -2.66 451.65z"/>
   <path class="fil0" d="M10148.21 15015.25l82.9 1.24c19.51,-290.74 322.33,-313.55 450.54,-187.74 61.16,60.01 98.35,185.97 54.42,293.32 -37.43,91.49 -115.41,147.05 -240.22,158.21l-1.21 81.75c241.04,-2.9 430.26,-244.83 311.73,-497.3 -102.72,-218.79 -400.27,-254.26 -572.85,-79.84l-2.22 -447.57 -83.51 -0.21 0.42 678.14z"/>
  </g>
 </g>
</svg>
